<svg width="20" height="20" viewBox="0 0 20 20" fill="none" xmlns="http://www.w3.org/2000/svg">
<path d="M9.57031 20C14.8559 20 19.1406 15.5228 19.1406 10C19.1406 4.47715 14.8559 0 9.57031 0C4.28477 0 0 4.47715 0 10C0 15.5228 4.28477 20 9.57031 20Z" fill="#E88102"/>
<path d="M9.57031 18.9453C14.8019 18.9453 19.043 14.7043 19.043 9.47266C19.043 4.24105 14.8019 0 9.57031 0C4.33871 0 0.0976562 4.24105 0.0976562 9.47266C0.0976562 14.7043 4.33871 18.9453 9.57031 18.9453Z" fill="#FDD835"/>
<path d="M13.3516 0.785156L0.882812 13.25C0.464844 12.293 0.203125 11.2539 0.125 10.1641L10.2617 0.0234375C11.3516 0.105469 12.3906 0.367188 13.3516 0.785156ZM17.8242 4.82422L4.92188 17.7266C4.11719 17.2734 3.39062 16.707 2.75391 16.0469L16.1484 2.65625C16.8047 3.28906 17.3711 4.01953 17.8242 4.82422ZM15.7617 2.30078L2.40234 15.6602C2.19531 15.418 1.99609 15.1641 1.8125 14.9023L15.0039 1.71094C15.2656 1.89453 15.5195 2.09375 15.7617 2.30078ZM18.7461 7.10938L7.20703 18.6484C6.85938 18.5586 6.51953 18.4492 6.1875 18.3242L18.4219 6.08984C18.5469 6.42187 18.6562 6.76172 18.7461 7.10938Z" fill="white" fill-opacity="0.314"/>
<path d="M19.043 9.47266C19.043 9.53906 19.043 9.60156 19.0391 9.66797C18.9375 4.52734 14.7383 0.390625 9.57031 0.390625C4.40234 0.390625 0.203125 4.52734 0.101563 9.66797C0.101563 9.60156 0.0976562 9.53906 0.0976562 9.47266C0.0976562 4.24219 4.33984 0 9.57031 0C14.8008 0 19.043 4.24219 19.043 9.47266Z" fill="white" fill-opacity="0.314"/>
<path d="M17.2656 9.88281C17.2656 13.9805 13.9414 17.3047 9.84375 17.3047C7.54297 17.3047 5.48438 16.2539 4.12109 14.6094C5.47656 16.0742 7.41406 16.9922 9.57031 16.9922C13.668 16.9922 16.9922 13.668 16.9922 9.57031C16.9922 7.77344 16.3555 6.12891 15.293 4.84375C16.5156 6.16797 17.2656 7.9375 17.2656 9.88281Z" fill="white" fill-opacity="0.314"/>
<path d="M9.57031 16.9922C13.6693 16.9922 16.9922 13.6693 16.9922 9.57031C16.9922 5.47132 13.6693 2.14844 9.57031 2.14844C5.47132 2.14844 2.14844 5.47132 2.14844 9.57031C2.14844 13.6693 5.47132 16.9922 9.57031 16.9922Z" fill="#F39E09"/>
<path d="M15.1953 4.72656C13.8945 3.60547 12.2031 2.92969 10.3516 2.92969C6.25391 2.92969 2.92969 6.25391 2.92969 10.3516C2.92969 12.2031 3.60547 13.8945 4.72656 15.1953C3.14844 13.832 2.14844 11.8203 2.14844 9.57031C2.14844 5.47266 5.47266 2.14844 9.57031 2.14844C11.8164 2.14844 13.832 3.14844 15.1953 4.72656Z" fill="#E88102"/>
</svg>
