<svg width="24" height="20" viewBox="0 0 24 20" fill="none" xmlns="http://www.w3.org/2000/svg">
<path d="M0 5.625L12 19.7344L10.6366 11.7742L7.07812 5.625L4.5 4.21875L0 5.625Z" fill="#FFBCDB"/>
<path d="M16.9219 5.625L13.474 11.4582L12 19.7344L24 5.625L20.4375 4.21875L16.9219 5.625Z" fill="#FF9DCB"/>
<path d="M16.9219 5.625L12 19.7344L7.07812 5.625L12 4.21875L16.9219 5.625Z" fill="#FF9DCB"/>
<path d="M16.9219 5.625L12 19.7344V4.21875L16.9219 5.625Z" fill="#FFCEE5"/>
<path d="M24 5.625H16.9219V1.40625L19.7344 0L24 5.625Z" fill="#FF9DCB"/>
<path d="M7.07812 5.625H0L4.26562 0L7.07812 1.40625V5.625Z" fill="#FFCEE5"/>
<path d="M12 0L11.2969 4.21875L7.07812 5.625L4.26562 0H12Z" fill="#FF9DCB"/>
<path d="M19.7344 0L16.9219 5.625L12.7031 4.21875L12 0H19.7344Z" fill="#FFCEE5"/>
<path d="M16.9219 5.625H7.07812L12 0L16.9219 5.625Z" fill="#FFBCDB"/>
<path d="M16.9219 5.625H12V0L16.9219 5.625Z" fill="#FF9DCB"/>
</svg>
