<svg width="24" height="20" viewBox="0 0 24 20" fill="none" xmlns="http://www.w3.org/2000/svg">
<path d="M0 17.1353C0 16.291 0.445312 15.4468 1.34521 14.9458L10.938 9.55566V8.99902C10.938 7.23633 12.144 6.54053 12.9604 5.88184C13.5913 5.38086 14.1294 4.8335 14.1294 3.8501C14.1294 2.63477 13.2388 1.82764 11.9028 1.82764C10.6133 1.82764 9.74121 2.77393 9.7041 4.19336C9.68555 4.67578 9.32373 5.05615 8.79492 5.05615C8.27539 5.05615 7.88574 4.6665 7.88574 4.0542C7.88574 1.62354 9.5 0 11.9028 0C14.3242 0 15.9478 1.54004 15.9478 3.85938C15.9478 5.61279 14.853 6.58691 13.9067 7.35693C13.1738 7.95996 12.8027 8.3125 12.8027 9.08252V9.55566L22.3955 14.9458C23.2954 15.4468 23.7407 16.291 23.7407 17.1353C23.7407 18.2856 22.9336 19.2598 21.5513 19.2598H2.18945C0.807129 19.2598 0 18.2856 0 17.1353ZM2.15234 16.959C2.15234 17.1724 2.2915 17.3579 2.59766 17.3579H21.1431C21.4399 17.3579 21.5884 17.1724 21.5884 16.959C21.5884 16.7734 21.4956 16.6157 21.2544 16.4766L11.8657 11.2163L2.48633 16.4766C2.24512 16.6157 2.15234 16.7734 2.15234 16.959Z" fill="white"/>
</svg>
