<svg width="20" height="19" viewBox="0 0 20 19" fill="none" xmlns="http://www.w3.org/2000/svg">
<path d="M19.9735 4.81291L14.0155 0.00123225C13.934 -0.00515587 13.8525 0.0133992 13.7817 0.0544354L10.2022 2.12955C10.1408 2.16521 10.0709 2.18398 9.99988 2.18397C9.92996 2.18397 9.64895 2.49803 9.58637 2.46174L6.25375 0.422092C6.18133 0.380099 6.06402 -0.00493961 5.98426 0.00127133L0.0263672 4.81287L1.20652 12.2643C1.23302 12.3084 1.26769 12.347 1.30867 12.3781L9.75621 18.7795C9.8263 18.8327 9.9119 18.8614 9.99988 18.8613L18.7932 12.2644C18.8197 12.2204 18.8375 12.1717 18.8457 12.1209L19.9947 5.02108C20.0061 4.95103 19.9988 4.87921 19.9735 4.81291Z" fill="#FE646F"/>
<path d="M5.98426 0.0014267C5.90271 0.00775568 5.82502 0.0387663 5.76152 0.0903329L0.149141 4.6435C0.0940151 4.68822 0.0516654 4.7467 0.0263672 4.81303L4.39824 8.01873L7.79137 6.87248L5.98426 0.0014267Z" fill="#FE99A0"/>
<path d="M19.9734 4.81291L14.0155 0.00122644C13.934 -0.00514427 13.8524 0.0134096 13.7817 0.0544296L13.2185 0.380914C13.2372 0.391266 13.2553 0.402906 13.2724 0.416305L18.8849 4.81048C18.9971 4.89834 19.052 5.0374 19.029 5.17505L17.8799 12.027C17.8634 12.1258 17.808 12.2147 17.7253 12.2751L9.302 18.4353L9.75622 18.7795C9.82631 18.8327 9.91191 18.8614 9.99989 18.8613L18.7932 12.2644C18.8197 12.2203 18.8375 12.1716 18.8457 12.1209L19.9947 5.02107C20.0061 4.95102 19.9988 4.87921 19.9734 4.81291Z" fill="#FD4755"/>
<path d="M9.79758 2.12963L6.21809 0.0545553C6.1474 0.0135147 6.06584 -0.00491439 5.98438 0.0017428L6.32449 4.3494L9.30211 6.89682L10 6.3344V2.18405C9.93019 2.18405 9.86051 2.16596 9.79758 2.12963Z" fill="#FB2B3A"/>
<path d="M3.90335 6.2919L0.0265091 4.81323C0.00125474 4.87942 -0.00612812 4.9511 0.00510289 5.02104L1.15413 12.121C1.16247 12.1716 1.18026 12.2202 1.20659 12.2642L4.52139 10.2712L3.90335 6.2919Z" fill="#FD4755"/>
<path d="M15.4786 10.2712L13.4304 11.1165L10 14.3562V18.8612C10.0859 18.8612 10.1719 18.8339 10.2437 18.7794L18.6912 12.378C18.7323 12.347 18.767 12.3084 18.7934 12.2642L15.4786 10.2712Z" fill="#FB2B3A"/>
<path d="M18.6912 12.3781C18.7323 12.3472 18.7669 12.3085 18.7933 12.2644L17.9275 11.7438L17.88 12.0271C17.8635 12.1259 17.8081 12.2148 17.7254 12.2752L10 17.9251V18.8613C10.0859 18.8613 10.1719 18.834 10.2437 18.7795L18.6912 12.3781Z" fill="#E41F2D"/>
<path d="M19.8508 4.64335L14.2384 0.0900702C14.175 0.0383371 14.0972 0.00744847 14.0157 0.00163269L13.6755 4.34929L16.0967 6.29152L19.9735 4.81327C19.9484 4.74677 19.9061 4.68813 19.8508 4.64335Z" fill="#FD4755"/>
<path d="M19.9734 4.81323C19.9483 4.74675 19.906 4.68812 19.8508 4.64335L14.2383 0.0900702C14.175 0.0383371 14.0972 0.00744847 14.0156 0.00163269L13.9421 0.940578L18.885 4.81054C18.9967 4.898 19.0515 5.03624 19.0292 5.17331L19.9734 4.81323Z" fill="#E41F2D"/>
<path d="M13.4415 4.40218L10.2023 6.28003C10.1408 6.31568 10.071 6.33446 9.99991 6.33447C9.92883 6.33448 9.85902 6.31571 9.79752 6.28007L6.55838 4.40214C6.48762 4.36112 6.40607 4.34258 6.32454 4.34896C6.243 4.35535 6.16533 4.38635 6.10182 4.43788L4.02596 6.12198C3.97083 6.1667 3.92848 6.22517 3.90319 6.2915C3.87789 6.35782 3.87055 6.42964 3.8819 6.49971L4.46897 10.1276C4.48554 10.23 4.5409 10.322 4.62358 10.3847L9.75623 14.2742C9.82635 14.3273 9.91192 14.3561 9.9999 14.3561C10.0879 14.3561 10.1734 14.3273 10.2436 14.2742L15.3763 10.3846C15.4589 10.322 15.5143 10.2299 15.5308 10.1276L16.118 6.49971C16.1293 6.42963 16.1219 6.3578 16.0966 6.29147C16.0713 6.22514 16.029 6.16666 15.9738 6.12194L13.898 4.43788C13.8345 4.38638 13.7568 4.35539 13.6753 4.34901C13.5938 4.34263 13.5123 4.36118 13.4415 4.40218Z" fill="#FDB4BA"/>
</svg>
