<svg width="16" height="17" viewBox="0 0 16 17" fill="none" xmlns="http://www.w3.org/2000/svg">
<path d="M6.20312 16.9062C5.78906 16.9062 5.46875 16.5781 5.46875 16.1719V0.742188C5.46875 0.335938 5.78906 0 6.20312 0C6.625 0 6.94531 0.335938 6.94531 0.742188V16.1719C6.94531 16.5781 6.625 16.9062 6.20312 16.9062ZM11.6797 15.1953C11.2578 15.1953 10.9375 14.8594 10.9375 14.4531V2.46094C10.9375 2.05469 11.2578 1.71094 11.6797 1.71094C12.0938 1.71094 12.4219 2.05469 12.4219 2.46094V14.4531C12.4219 14.8594 12.0938 15.1953 11.6797 15.1953ZM3.46875 13.9531C3.05469 13.9531 2.73438 13.625 2.73438 13.2109V3.69531C2.73438 3.28906 3.05469 2.95312 3.46875 2.95312C3.89062 2.95312 4.21094 3.28906 4.21094 3.69531V13.2109C4.21094 13.625 3.89062 13.9531 3.46875 13.9531ZM8.94531 12.8906C8.52344 12.8906 8.20312 12.5703 8.20312 12.1562V4.75C8.20312 4.34375 8.52344 4.00781 8.94531 4.00781C9.35938 4.00781 9.6875 4.34375 9.6875 4.75V12.1562C9.6875 12.5703 9.35938 12.8906 8.94531 12.8906ZM14.4141 11.4062C13.9922 11.4062 13.6797 11.0781 13.6797 10.6641V6.24219C13.6797 5.83594 13.9922 5.5 14.4141 5.5C14.8281 5.5 15.1562 5.83594 15.1562 6.24219V10.6641C15.1562 11.0781 14.8281 11.4062 14.4141 11.4062ZM0.734375 10.6641C0.320312 10.6641 0 10.3281 0 9.92188V6.99219C0 6.57812 0.320312 6.24219 0.734375 6.24219C1.14844 6.24219 1.47656 6.57812 1.47656 6.99219V9.92188C1.47656 10.3281 1.14844 10.6641 0.734375 10.6641Z" fill="#181D27"/>
</svg>
