<svg width="35" height="33" viewBox="0 0 35 33" fill="none" xmlns="http://www.w3.org/2000/svg">
<g clip-path="url(#clip0_599_2839)">
<path d="M28.915 18.6795C26.361 15.741 25.3751 11.7838 26.3581 8.06297C24.0494 11.1415 20.3329 12.8203 16.4417 12.6361C15.6844 12.5996 13.9241 12.2578 13.9241 12.2578C13.9241 12.2578 15.2864 13.4263 15.7813 13.9991C18.3354 16.9376 19.3213 20.8948 18.3382 24.6157C20.6469 21.5371 24.3635 19.8583 28.2546 20.0425C29.012 20.0791 30.7722 20.4208 30.7722 20.4208C30.7722 20.4208 29.4099 19.2523 28.915 18.6795Z" fill="#FF5A4F"/>
<path d="M12.1459 19.3824C10.6311 17.6392 10.0467 15.2936 10.6294 13.0877C9.25937 14.9122 7.05636 15.9072 4.74955 15.7988C4.3002 15.7773 3.25609 15.5734 3.25609 15.5734C3.25609 15.5734 4.06319 16.2665 4.35858 16.6058C5.87333 18.349 6.45777 20.6945 5.875 22.9005C7.24506 21.076 9.44807 20.0809 11.7549 20.1894C12.2042 20.2109 13.2483 20.4148 13.2483 20.4148C13.2483 20.4148 12.4412 19.7217 12.1459 19.3824Z" fill="#FF5A4F"/>
<path d="M27.1025 27.1273C26.8706 27.606 26.2895 27.802 25.8023 27.566C25.315 27.3299 25.1087 26.7524 25.3407 26.2737C25.5726 25.7949 26.1537 25.5989 26.6409 25.835C27.1282 26.0711 27.3345 26.6486 27.1025 27.1273Z" fill="#FF5A4F"/>
<path d="M16.6865 7.37535C16.4546 7.85408 15.8735 8.05009 15.3863 7.81401C14.899 7.57792 14.6927 7.00045 14.9247 6.52172C15.1566 6.04299 15.7376 5.84698 16.2249 6.08306C16.7122 6.31915 16.9184 6.89662 16.6865 7.37535Z" fill="#FF5A4F"/>
<path d="M6.16824 9.5684C6.65475 9.80412 7.23689 9.60773 7.46848 9.12974C7.70007 8.65175 7.49341 8.07318 7.00689 7.83746C6.52038 7.60174 5.93824 7.79813 5.70665 8.27612C5.47506 8.7541 5.68172 9.33268 6.16824 9.5684Z" fill="#FF5A4F"/>
</g>
<defs>
<clipPath id="clip0_599_2839">
<rect width="27.8552" height="22.2842" fill="white" transform="translate(9.71655) rotate(25.8506)"/>
</clipPath>
</defs>
</svg>
