<svg width="28" height="28" viewBox="0 0 28 28" fill="none" xmlns="http://www.w3.org/2000/svg">
<path d="M14.1601 8.67268C12.6129 11.187 9.97295 12.7975 7.05768 12.9298C9.80874 13.9024 11.8661 16.2111 12.615 19.0685C12.7603 19.6248 12.912 20.976 12.912 20.976C12.912 20.976 13.4488 19.7253 13.751 19.2373C15.2983 16.723 17.9382 15.1125 20.8534 14.9802C18.1024 14.0076 16.045 11.6989 15.2961 8.84153C15.1509 8.28522 14.9991 6.93402 14.9991 6.93402C14.9991 6.93402 14.4624 8.1847 14.1601 8.67268Z" fill="#FF579A"/>
<path d="M20.684 8.06907C21.0829 8.12837 21.3565 8.50437 21.2962 8.91048C21.2358 9.31659 20.8647 9.59677 20.4657 9.53747C20.0667 9.47816 19.7931 9.10217 19.8535 8.69606C19.9139 8.28995 20.285 8.00977 20.684 8.06907Z" fill="#FF579A"/>
</svg>
