<svg width="22" height="22" viewBox="0 0 22 22" fill="none" xmlns="http://www.w3.org/2000/svg">
<path d="M14.6426 6.64768C11.5928 7.42952 8.37456 6.70851 6.04064 4.64963C7.42989 7.4342 7.29703 10.7295 5.75398 13.476C5.45315 14.0103 4.56828 15.1591 4.56828 15.1591C4.56828 15.1591 5.90671 14.5976 6.50014 14.4473C9.55001 13.6654 12.7682 14.3865 15.1021 16.4453C13.7129 13.6608 13.8457 10.3655 15.3888 7.61899C15.6896 7.08467 16.5745 5.93588 16.5745 5.93588C16.5745 5.93588 15.2361 6.4974 14.6426 6.64768Z" fill="white"/>
<path d="M20.0938 11.0184C20.3559 11.3596 20.2871 11.8508 19.9398 12.1176C19.5925 12.3844 19.1002 12.3243 18.8381 11.9831C18.576 11.6419 18.6448 11.1507 18.9921 10.8839C19.3394 10.6171 19.8317 10.6772 20.0938 11.0184Z" fill="white"/>
</svg>
