<svg width="17" height="17" viewBox="0 0 17 17" fill="none" xmlns="http://www.w3.org/2000/svg">
<path d="M8.17101 5.00428C7.27818 6.45514 5.75484 7.38449 4.07262 7.4608C5.66009 8.02203 6.84729 9.35425 7.27942 11.0031C7.36324 11.3241 7.45082 12.1038 7.45082 12.1038C7.45082 12.1038 7.76052 11.3821 7.93493 11.1005C8.82777 9.64966 10.3511 8.7203 12.0333 8.644C10.4459 8.08276 9.25866 6.75054 8.82653 5.10171C8.74271 4.7807 8.65513 4.001 8.65513 4.001C8.65513 4.001 8.34543 4.7227 8.17101 5.00428Z" fill="white"/>
<path d="M11.9355 4.65593C12.1657 4.69015 12.3236 4.90712 12.2887 5.14146C12.2539 5.3758 12.0398 5.53748 11.8095 5.50326C11.5793 5.46904 11.4214 5.25208 11.4563 5.01773C11.4911 4.78339 11.7052 4.62171 11.9355 4.65593Z" fill="white"/>
</svg>
