<svg width="26" height="26" viewBox="0 0 26 26" fill="none" xmlns="http://www.w3.org/2000/svg">
<path d="M11.1691 7.85108C10.576 10.6119 8.70933 12.9064 6.12274 13.9557C8.91373 13.955 11.5055 15.3805 13.0923 17.7182C13.4008 18.1735 13.9687 19.3435 13.9687 19.3435C13.9687 19.3435 14.0537 18.0445 14.1705 17.508C14.7636 14.7472 16.6303 12.4527 19.2169 11.4034C16.4259 11.4041 13.8342 9.9786 12.2473 7.64092C11.9389 7.18563 11.3709 6.01564 11.3709 6.01564C11.3709 6.01564 11.286 7.31463 11.1691 7.85108Z" fill="white"/>
<path d="M16.8595 5.22524C17.2382 5.15142 17.6049 5.40319 17.68 5.78865C17.7551 6.17411 17.5099 6.54514 17.1312 6.61896C16.7525 6.69277 16.3858 6.441 16.3107 6.05554C16.2356 5.67008 16.4808 5.29905 16.8595 5.22524Z" fill="white"/>
</svg>
