<svg width="23" height="22" viewBox="0 0 23 22" fill="none" xmlns="http://www.w3.org/2000/svg">
<path d="M22.1436 3.84358L19.3521 6.63458C19.258 6.72841 19.1306 6.7811 18.9978 6.7811C18.865 6.7811 18.7376 6.72841 18.6436 6.63458L17.4981 5.48908V15.4881C17.4981 15.7646 17.2741 15.9891 16.9971 15.9891H14.3261C14.0281 14.8856 13.6036 13.8651 12.9981 13.1141V11.4891C12.9981 10.6621 12.3251 9.98908 11.4981 9.98908H6.49806V5.48908L5.35256 6.63458C5.25854 6.72841 5.13113 6.7811 4.99831 6.7811C4.86548 6.7811 4.73808 6.72841 4.64406 6.63458L1.85256 3.84358C1.75873 3.74956 1.70603 3.62216 1.70603 3.48933C1.70603 3.3565 1.75873 3.2291 1.85256 3.13508L2.16956 2.81808C3.86452 1.12301 6.12934 0.118923 8.52356 0.00108148C8.77656 -0.0114185 8.99306 0.179082 9.03006 0.429582C9.13645 1.14068 9.49462 1.78994 10.0394 2.25921C10.5841 2.72848 11.2793 2.98657 11.9983 2.98651C12.7173 2.98645 13.4124 2.72824 13.957 2.25888C14.5017 1.78952 14.8598 1.14019 14.9661 0.429082C15.0031 0.178582 15.2196 -0.0119185 15.4726 0.000581521C17.8668 0.118423 20.1316 1.12251 21.8266 2.81758L22.1436 3.13458C22.1902 3.18111 22.2271 3.23637 22.2523 3.2972C22.2776 3.35803 22.2905 3.42323 22.2905 3.48908C22.2905 3.55493 22.2776 3.62013 22.2523 3.68096C22.2271 3.74179 22.1902 3.79705 22.1436 3.84358ZM11.9981 11.4891C11.9981 11.3565 11.9454 11.2293 11.8516 11.1355C11.7578 11.0418 11.6307 10.9891 11.4981 10.9891H2.49856C2.43285 10.989 2.36778 11.0019 2.30706 11.027C2.24634 11.0521 2.19116 11.0889 2.14468 11.1354C2.0982 11.1818 2.06132 11.2369 2.03616 11.2976C2.01101 11.3583 1.99806 11.4234 1.99806 11.4891V12.4891H11.9981V11.4891ZM13.9961 21.4846C13.9716 19.9351 13.7491 15.2401 11.9981 13.4891H1.99806C0.247057 15.2401 0.0245567 19.9351 5.66963e-05 21.4846C-0.000941872 21.5507 0.0112591 21.6163 0.0359451 21.6777C0.0606311 21.739 0.097306 21.7948 0.143822 21.8418C0.190338 21.8887 0.245761 21.926 0.306844 21.9513C0.367927 21.9766 0.433444 21.9894 0.499557 21.9891H13.4966C13.5627 21.9894 13.6282 21.9766 13.6893 21.9513C13.7504 21.926 13.8058 21.8887 13.8523 21.8418C13.8988 21.7948 13.9355 21.739 13.9602 21.6777C13.9849 21.6163 13.9971 21.5507 13.9961 21.4846Z" fill="white" fill-opacity="0.7"/>
</svg>
