<svg width="21" height="21" viewBox="0 0 21 21" fill="none" xmlns="http://www.w3.org/2000/svg">
<path d="M17.6472 5.35897L17.6579 5.32431C20.6276 4.16369 21.7724 1.5695 20.4642 0.408876C19.156 -0.751681 17.6579 0.927103 17.6579 0.927103H17.6472C17.6472 0.927103 16.1485 -0.751109 14.8409 0.408876C13.5326 1.5695 14.6775 4.19905 17.6472 5.35897ZM8.56787 21H15.9764C15.9764 16.1339 12.7145 17.4417 11.8593 16.9879C11.2102 16.6436 8.43467 15.4496 9.17932 13.1826C13.0645 13.595 14.4645 12.2969 14.2515 12.3481C14.0385 12.3997 12.5272 11.3979 12.5272 6.91563C12.5272 2.43331 8.01425 2.75206 8.01425 2.75206H7.96963C7.96963 2.75206 3.45225 2.4461 3.45225 6.92841C3.45225 11.4107 1.93851 12.4686 1.72613 12.4168C1.51309 12.3651 2.91183 13.6668 6.79706 13.255C7.5423 15.522 4.8466 16.8431 4.11706 16.9988C2.83331 17.2725 0 16.1339 0 21H8.56787Z" fill="white" fill-opacity="0.7"/>
</svg>
