<svg width="22" height="21" viewBox="0 0 22 21" fill="none" xmlns="http://www.w3.org/2000/svg">
<path d="M5.80078 20.2637C5.52083 20.2637 5.30599 20.1725 5.15625 19.9902C5.00651 19.8079 4.93164 19.5638 4.93164 19.2578V16.416H4.47266C3.5026 16.416 2.68555 16.2435 2.02148 15.8984C1.35742 15.5534 0.852865 15.0488 0.507812 14.3848C0.169271 13.7207 0 12.9102 0 11.9531V4.47266C0 3.51562 0.169271 2.70508 0.507812 2.04102C0.852865 1.37695 1.35742 0.872396 2.02148 0.527344C2.68555 0.175781 3.5026 0 4.47266 0H17.0508C18.0208 0 18.8379 0.175781 19.502 0.527344C20.166 0.872396 20.6673 1.37695 21.0059 2.04102C21.3509 2.70508 21.5234 3.51562 21.5234 4.47266V11.9531C21.5234 12.9102 21.3509 13.7207 21.0059 14.3848C20.6673 15.0488 20.166 15.5534 19.502 15.8984C18.8379 16.2435 18.0208 16.416 17.0508 16.416H10.4492L6.92383 19.6387C6.68945 19.8535 6.49089 20.0098 6.32812 20.1074C6.17188 20.2116 5.99609 20.2637 5.80078 20.2637ZM6.5625 12.2754H11.8848C12.3861 12.2754 12.7767 12.1354 13.0566 11.8555C13.3366 11.5755 13.4766 11.1882 13.4766 10.6934V5.73242C13.4766 5.23112 13.3464 4.84375 13.0859 4.57031C12.8255 4.29688 12.4414 4.16016 11.9336 4.16016H6.5625C6.08073 4.16016 5.69336 4.29688 5.40039 4.57031C5.10742 4.84375 4.96094 5.23112 4.96094 5.73242V10.6934C4.96094 11.1882 5.10091 11.5755 5.38086 11.8555C5.66732 12.1354 6.0612 12.2754 6.5625 12.2754ZM14.0527 9.58984L16.0156 11.2598C16.1068 11.3379 16.1979 11.3997 16.2891 11.4453C16.3867 11.4844 16.4811 11.5039 16.5723 11.5039C16.7611 11.5039 16.9141 11.4421 17.0312 11.3184C17.1549 11.1882 17.2168 11.0156 17.2168 10.8008V5.61523C17.2168 5.4069 17.1549 5.24089 17.0312 5.11719C16.9141 4.98698 16.7611 4.92188 16.5723 4.92188C16.4811 4.92188 16.3835 4.94466 16.2793 4.99023C16.1816 5.0293 16.0938 5.08464 16.0156 5.15625L14.0527 6.83594V9.58984Z" fill="white" fill-opacity="0.7"/>
</svg>
