<svg width="25" height="22" viewBox="0 0 25 22" fill="none" xmlns="http://www.w3.org/2000/svg">
<path d="M10.4395 17.7441C10.3809 17.7441 10.319 17.7409 10.2539 17.7344C10.1888 17.7344 10.1237 17.7311 10.0586 17.7246C9.99349 17.7246 9.92513 17.7376 9.85352 17.7637C9.7819 17.7897 9.70378 17.832 9.61914 17.8906C9.20247 18.1901 8.72396 18.4831 8.18359 18.7695C7.64974 19.0625 7.10612 19.3294 6.55273 19.5703C6.00586 19.8112 5.49479 20.0033 5.01953 20.1465C4.54427 20.2897 4.16016 20.3613 3.86719 20.3613C3.48958 20.3613 3.2487 20.2376 3.14453 19.9902C3.04688 19.7493 3.09245 19.5052 3.28125 19.2578C3.40495 19.0951 3.58073 18.877 3.80859 18.6035C4.04297 18.3366 4.28385 18.0436 4.53125 17.7246C4.77865 17.4056 4.99349 17.0964 5.17578 16.7969C5.21484 16.7253 5.22135 16.6569 5.19531 16.5918C5.17578 16.5202 5.13021 16.4648 5.05859 16.4258C4.01693 15.8659 3.11523 15.1986 2.35352 14.4238C1.59831 13.6426 1.01562 12.7832 0.605469 11.8457C0.201823 10.9082 0 9.91862 0 8.87695C0 7.64648 0.283203 6.49414 0.849609 5.41992C1.42253 4.3457 2.21354 3.40495 3.22266 2.59766C4.23828 1.78385 5.41667 1.14909 6.75781 0.693359C8.09896 0.23112 9.53776 0 11.0742 0C12.6107 0 14.0495 0.23112 15.3906 0.693359C16.7318 1.14909 17.9069 1.78385 18.916 2.59766C19.9316 3.40495 20.7227 4.3457 21.2891 5.41992C21.862 6.49414 22.1484 7.64648 22.1484 8.87695C22.1484 9.30013 22.1126 9.72005 22.041 10.1367C21.9694 10.5469 21.862 10.9505 21.7188 11.3477L21.5723 11.3672C21.3965 11.0742 21.1523 10.8398 20.8398 10.6641C20.5273 10.4818 20.179 10.3906 19.7949 10.3906C19.3327 10.3906 18.916 10.5306 18.5449 10.8105C18.1738 11.084 17.9232 11.4323 17.793 11.8555C17.7865 11.901 17.7767 11.9434 17.7637 11.9824C17.7572 12.0215 17.7507 12.0605 17.7441 12.0996C17.7051 12.0801 17.666 12.0671 17.627 12.0605C17.5944 12.054 17.5553 12.0508 17.5098 12.0508C17.041 12.0508 16.6243 12.1875 16.2598 12.4609C15.9017 12.7279 15.6543 13.0697 15.5176 13.4863C15.5046 13.5319 15.4948 13.5742 15.4883 13.6133C15.4818 13.6458 15.4753 13.6849 15.4688 13.7305C15.4297 13.7174 15.3874 13.7077 15.3418 13.7012C15.2962 13.6882 15.2539 13.6816 15.2148 13.6816C14.8242 13.6816 14.4661 13.7793 14.1406 13.9746C13.8216 14.1634 13.5645 14.4206 13.3691 14.7461C13.1803 15.0651 13.0859 15.4232 13.0859 15.8203V17.5195C12.6758 17.5911 12.2493 17.6465 11.8066 17.6855C11.3639 17.7246 10.9082 17.7441 10.4395 17.7441ZM15.2051 17.8223C15.0553 17.8223 14.9284 17.7669 14.8242 17.6562C14.7201 17.5521 14.668 17.4251 14.668 17.2754V15.8203C14.668 15.6641 14.7201 15.5339 14.8242 15.4297C14.9284 15.3255 15.0553 15.2734 15.2051 15.2734C15.3678 15.2734 15.5013 15.3255 15.6055 15.4297C15.7161 15.5339 15.7715 15.6641 15.7715 15.8203V17.2754C15.7715 17.4251 15.7161 17.5521 15.6055 17.6562C15.5013 17.7669 15.3678 17.8223 15.2051 17.8223ZM17.5098 19.4629C17.3535 19.4629 17.2201 19.4076 17.1094 19.2969C17.0052 19.1927 16.9531 19.0625 16.9531 18.9062V14.1797C16.9531 14.0299 17.0052 13.903 17.1094 13.7988C17.2201 13.6882 17.3535 13.6328 17.5098 13.6328C17.666 13.6328 17.7962 13.6882 17.9004 13.7988C18.0046 13.903 18.0566 14.0299 18.0566 14.1797V18.9062C18.0566 19.0625 18.0046 19.1927 17.9004 19.2969C17.7962 19.4076 17.666 19.4629 17.5098 19.4629ZM19.7949 21.123C19.6387 21.123 19.5085 21.071 19.4043 20.9668C19.3001 20.8626 19.248 20.7324 19.248 20.5762V12.5391C19.248 12.3763 19.3001 12.2428 19.4043 12.1387C19.515 12.0345 19.6452 11.9824 19.7949 11.9824C19.9512 11.9824 20.0814 12.0345 20.1855 12.1387C20.2962 12.2428 20.3516 12.3763 20.3516 12.5391V20.5762C20.3516 20.7324 20.2962 20.8626 20.1855 20.9668C20.0814 21.071 19.9512 21.123 19.7949 21.123ZM22.0801 20.1758C21.9303 20.1758 21.8001 20.1237 21.6895 20.0195C21.5853 19.9154 21.5332 19.7852 21.5332 19.6289V13.4668C21.5332 13.3171 21.5853 13.1901 21.6895 13.0859C21.8001 12.9753 21.9303 12.9199 22.0801 12.9199C22.2363 12.9199 22.3665 12.9753 22.4707 13.0859C22.5814 13.1901 22.6367 13.3171 22.6367 13.4668V19.6289C22.6367 19.7852 22.5814 19.9154 22.4707 20.0195C22.3665 20.1237 22.2363 20.1758 22.0801 20.1758ZM24.375 18.3301C24.2253 18.3301 24.0951 18.278 23.9844 18.1738C23.8802 18.0697 23.8281 17.9395 23.8281 17.7832V15.3027C23.8281 15.153 23.8802 15.026 23.9844 14.9219C24.0951 14.8112 24.2253 14.7559 24.375 14.7559C24.5378 14.7559 24.6712 14.8112 24.7754 14.9219C24.8796 15.026 24.9316 15.153 24.9316 15.3027V17.7832C24.9316 17.946 24.8796 18.0762 24.7754 18.1738C24.6712 18.278 24.5378 18.3301 24.375 18.3301Z" fill="white" fill-opacity="0.7"/>
</svg>
