<svg width="24" height="19" viewBox="0 0 24 19" fill="none" xmlns="http://www.w3.org/2000/svg">
<path d="M11.6016 10.9668C11.0091 10.9668 10.4557 10.804 9.94141 10.4785C9.43359 10.1465 9.02344 9.70378 8.71094 9.15039C8.39844 8.59049 8.24219 7.96549 8.24219 7.27539C8.24219 6.5918 8.39844 5.97656 8.71094 5.42969C9.02344 4.88281 9.43359 4.45312 9.94141 4.14062C10.4557 3.82161 11.0091 3.66211 11.6016 3.66211C12.2005 3.66211 12.7539 3.81836 13.2617 4.13086C13.776 4.43685 14.1895 4.86003 14.502 5.40039C14.8145 5.94076 14.9707 6.55924 14.9707 7.25586C14.9707 7.94596 14.8145 8.57422 14.502 9.14062C14.1895 9.70052 13.776 10.1465 13.2617 10.4785C12.7539 10.804 12.2005 10.9668 11.6016 10.9668ZM6.60156 18.3594C5.87891 18.3594 5.38411 18.2617 5.11719 18.0664C4.85677 17.8711 4.72656 17.5911 4.72656 17.2266C4.72656 16.6992 4.88281 16.1458 5.19531 15.5664C5.51432 14.9805 5.97331 14.4336 6.57227 13.9258C7.17122 13.418 7.89388 13.0046 8.74023 12.6855C9.58659 12.3665 10.5404 12.207 11.6016 12.207C12.6693 12.207 13.6263 12.3665 14.4727 12.6855C15.319 13.0046 16.0417 13.418 16.6406 13.9258C17.2396 14.4336 17.6953 14.9805 18.0078 15.5664C18.3268 16.1458 18.4863 16.6992 18.4863 17.2266C18.4863 17.5911 18.3529 17.8711 18.0859 18.0664C17.819 18.2617 17.3242 18.3594 16.6016 18.3594H6.60156ZM0.800781 1.34766C0.651042 1.34766 0.520833 1.29557 0.410156 1.19141C0.30599 1.08073 0.253906 0.950521 0.253906 0.800781C0.253906 0.651042 0.30599 0.524089 0.410156 0.419922C0.520833 0.309245 0.651042 0.253906 0.800781 0.253906C0.950521 0.253906 1.07747 0.309245 1.18164 0.419922C1.29232 0.524089 1.34766 0.651042 1.34766 0.800781C1.34766 0.950521 1.29232 1.08073 1.18164 1.19141C1.07747 1.29557 0.950521 1.34766 0.800781 1.34766ZM3.87695 1.34766C3.72721 1.34766 3.59701 1.29557 3.48633 1.19141C3.38216 1.08073 3.33008 0.950521 3.33008 0.800781C3.33008 0.651042 3.38216 0.524089 3.48633 0.419922C3.59701 0.309245 3.72721 0.253906 3.87695 0.253906C4.02669 0.253906 4.15365 0.309245 4.25781 0.419922C4.36849 0.524089 4.42383 0.651042 4.42383 0.800781C4.42383 0.950521 4.36849 1.08073 4.25781 1.19141C4.15365 1.29557 4.02669 1.34766 3.87695 1.34766ZM6.95312 1.34766C6.80339 1.34766 6.67318 1.29557 6.5625 1.19141C6.45833 1.08073 6.40625 0.950521 6.40625 0.800781C6.40625 0.651042 6.45833 0.524089 6.5625 0.419922C6.67318 0.309245 6.80339 0.253906 6.95312 0.253906C7.10286 0.253906 7.22982 0.309245 7.33398 0.419922C7.44466 0.524089 7.5 0.651042 7.5 0.800781C7.5 0.950521 7.44466 1.08073 7.33398 1.19141C7.22982 1.29557 7.10286 1.34766 6.95312 1.34766ZM10.0391 1.5918C9.81771 1.5918 9.62891 1.51367 9.47266 1.35742C9.31641 1.20117 9.23828 1.01562 9.23828 0.800781C9.23828 0.579427 9.31641 0.390625 9.47266 0.234375C9.62891 0.078125 9.81771 0 10.0391 0C10.2539 0 10.4395 0.078125 10.5957 0.234375C10.752 0.390625 10.8301 0.579427 10.8301 0.800781C10.8301 1.01562 10.752 1.20117 10.5957 1.35742C10.4395 1.51367 10.2539 1.5918 10.0391 1.5918ZM13.1152 1.5918C12.8939 1.5918 12.7051 1.51367 12.5488 1.35742C12.3926 1.20117 12.3145 1.01562 12.3145 0.800781C12.3145 0.579427 12.3926 0.390625 12.5488 0.234375C12.7051 0.078125 12.8939 0 13.1152 0C13.3301 0 13.5156 0.078125 13.6719 0.234375C13.8281 0.390625 13.9062 0.579427 13.9062 0.800781C13.9062 1.01562 13.8281 1.20117 13.6719 1.35742C13.5156 1.51367 13.3301 1.5918 13.1152 1.5918ZM16.2012 1.34766C16.0514 1.34766 15.9212 1.29557 15.8105 1.19141C15.7064 1.08073 15.6543 0.950521 15.6543 0.800781C15.6543 0.651042 15.7064 0.524089 15.8105 0.419922C15.9212 0.309245 16.0514 0.253906 16.2012 0.253906C16.3509 0.253906 16.4779 0.309245 16.582 0.419922C16.6927 0.524089 16.748 0.651042 16.748 0.800781C16.748 0.950521 16.6927 1.08073 16.582 1.19141C16.4779 1.29557 16.3509 1.34766 16.2012 1.34766ZM19.2871 1.34766C19.1374 1.34766 19.0072 1.29557 18.8965 1.19141C18.7858 1.08073 18.7305 0.950521 18.7305 0.800781C18.7305 0.651042 18.7858 0.524089 18.8965 0.419922C19.0072 0.309245 19.1374 0.253906 19.2871 0.253906C19.4368 0.253906 19.5638 0.309245 19.668 0.419922C19.7786 0.524089 19.834 0.651042 19.834 0.800781C19.834 0.950521 19.7786 1.08073 19.668 1.19141C19.5638 1.29557 19.4368 1.34766 19.2871 1.34766ZM22.3633 1.34766C22.2135 1.34766 22.0833 1.29557 21.9727 1.19141C21.8685 1.08073 21.8164 0.950521 21.8164 0.800781C21.8164 0.651042 21.8685 0.524089 21.9727 0.419922C22.0833 0.309245 22.2135 0.253906 22.3633 0.253906C22.513 0.253906 22.64 0.309245 22.7441 0.419922C22.8548 0.524089 22.9102 0.651042 22.9102 0.800781C22.9102 0.950521 22.8548 1.08073 22.7441 1.19141C22.64 1.29557 22.513 1.34766 22.3633 1.34766ZM0.800781 4.7168C0.651042 4.7168 0.520833 4.66146 0.410156 4.55078C0.30599 4.4401 0.253906 4.3099 0.253906 4.16016C0.253906 4.01042 0.30599 3.88346 0.410156 3.7793C0.520833 3.66862 0.651042 3.61328 0.800781 3.61328C0.950521 3.61328 1.07747 3.66862 1.18164 3.7793C1.29232 3.88346 1.34766 4.01042 1.34766 4.16016C1.34766 4.3099 1.29232 4.4401 1.18164 4.55078C1.07747 4.66146 0.950521 4.7168 0.800781 4.7168ZM3.87695 4.96094C3.6556 4.96094 3.4668 4.88281 3.31055 4.72656C3.1543 4.57031 3.07617 4.38151 3.07617 4.16016C3.07617 3.94531 3.1543 3.75977 3.31055 3.60352C3.4668 3.44727 3.6556 3.36914 3.87695 3.36914C4.0918 3.36914 4.27734 3.44727 4.43359 3.60352C4.59635 3.75977 4.67773 3.94531 4.67773 4.16016C4.67773 4.38151 4.59635 4.57031 4.43359 4.72656C4.27734 4.88281 4.0918 4.96094 3.87695 4.96094ZM6.95312 4.96094C6.73828 4.96094 6.55273 4.88281 6.39648 4.72656C6.24023 4.57031 6.16211 4.38151 6.16211 4.16016C6.16211 3.94531 6.24023 3.75977 6.39648 3.60352C6.55273 3.44727 6.73828 3.36914 6.95312 3.36914C7.17448 3.36914 7.36328 3.44727 7.51953 3.60352C7.67578 3.75977 7.75391 3.94531 7.75391 4.16016C7.57812 4.40755 7.43164 4.64518 7.31445 4.87305C7.18424 4.93164 7.0638 4.96094 6.95312 4.96094ZM16.2012 4.96094C16.097 4.96094 16.0059 4.94466 15.9277 4.91211C15.7845 4.62565 15.612 4.3457 15.4102 4.07227C15.4297 3.87695 15.5143 3.71094 15.6641 3.57422C15.8203 3.4375 15.9993 3.36914 16.2012 3.36914C16.4225 3.36914 16.6113 3.44727 16.7676 3.60352C16.9238 3.75977 17.002 3.94531 17.002 4.16016C17.002 4.38151 16.9238 4.57031 16.7676 4.72656C16.6113 4.88281 16.4225 4.96094 16.2012 4.96094ZM19.2871 4.96094C19.0658 4.96094 18.877 4.88281 18.7207 4.72656C18.5645 4.57031 18.4863 4.38151 18.4863 4.16016C18.4863 3.94531 18.5645 3.75977 18.7207 3.60352C18.877 3.44727 19.0658 3.36914 19.2871 3.36914C19.502 3.36914 19.6875 3.44727 19.8438 3.60352C20 3.75977 20.0781 3.94531 20.0781 4.16016C20.0781 4.38151 20 4.57031 19.8438 4.72656C19.6875 4.88281 19.502 4.96094 19.2871 4.96094ZM22.3633 4.7168C22.2135 4.7168 22.0833 4.66146 21.9727 4.55078C21.8685 4.4401 21.8164 4.3099 21.8164 4.16016C21.8164 4.01042 21.8685 3.88346 21.9727 3.7793C22.0833 3.66862 22.2135 3.61328 22.3633 3.61328C22.513 3.61328 22.64 3.66862 22.7441 3.7793C22.8548 3.88346 22.9102 4.01042 22.9102 4.16016C22.9102 4.3099 22.8548 4.4401 22.7441 4.55078C22.64 4.66146 22.513 4.7168 22.3633 4.7168ZM0.800781 8.33008C0.579427 8.33008 0.390625 8.25195 0.234375 8.0957C0.078125 7.93945 0 7.75065 0 7.5293C0 7.30794 0.078125 7.11914 0.234375 6.96289C0.390625 6.80664 0.579427 6.72852 0.800781 6.72852C1.01562 6.72852 1.20117 6.80664 1.35742 6.96289C1.51367 7.11914 1.5918 7.30794 1.5918 7.5293C1.5918 7.75065 1.51367 7.93945 1.35742 8.0957C1.20117 8.25195 1.01562 8.33008 0.800781 8.33008ZM3.87695 8.57422C3.59049 8.57422 3.3431 8.47331 3.13477 8.27148C2.93294 8.06315 2.83203 7.81576 2.83203 7.5293C2.83203 7.24284 2.93294 6.9987 3.13477 6.79688C3.3431 6.58854 3.59049 6.48438 3.87695 6.48438C4.16341 6.48438 4.40755 6.58854 4.60938 6.79688C4.81771 6.9987 4.92188 7.24284 4.92188 7.5293C4.92188 7.81576 4.81771 8.06315 4.60938 8.27148C4.40755 8.47331 4.16341 8.57422 3.87695 8.57422ZM5.9082 7.5293C5.9082 7.26888 5.99284 7.04102 6.16211 6.8457C6.33789 6.65039 6.55273 6.5332 6.80664 6.49414C6.78711 6.61784 6.77083 6.74479 6.75781 6.875C6.7513 7.00521 6.74805 7.13867 6.74805 7.27539C6.74805 7.74414 6.80013 8.17708 6.9043 8.57422C6.63086 8.5612 6.39648 8.45378 6.20117 8.25195C6.00586 8.05013 5.9082 7.80924 5.9082 7.5293ZM17.2559 7.5293C17.2559 7.79622 17.1615 8.0306 16.9727 8.23242C16.7904 8.42773 16.569 8.54167 16.3086 8.57422C16.4128 8.17057 16.4648 7.73112 16.4648 7.25586C16.4648 6.9694 16.4486 6.71875 16.416 6.50391C16.6504 6.55599 16.849 6.67969 17.0117 6.875C17.1745 7.0638 17.2559 7.2819 17.2559 7.5293ZM19.2871 8.57422C19.0007 8.57422 18.7533 8.47331 18.5449 8.27148C18.3366 8.06315 18.2324 7.81576 18.2324 7.5293C18.2324 7.24284 18.3366 6.9987 18.5449 6.79688C18.7533 6.58854 19.0007 6.48438 19.2871 6.48438C19.5736 6.48438 19.8177 6.58854 20.0195 6.79688C20.2279 6.9987 20.332 7.24284 20.332 7.5293C20.332 7.81576 20.2279 8.06315 20.0195 8.27148C19.8177 8.47331 19.5736 8.57422 19.2871 8.57422ZM22.3633 8.33008C22.1419 8.33008 21.9531 8.25195 21.7969 8.0957C21.6406 7.93945 21.5625 7.75065 21.5625 7.5293C21.5625 7.30794 21.6406 7.11914 21.7969 6.96289C21.9531 6.80664 22.1419 6.72852 22.3633 6.72852C22.5781 6.72852 22.7637 6.80664 22.9199 6.96289C23.0827 7.11914 23.1641 7.30794 23.1641 7.5293C23.1641 7.75065 23.0827 7.93945 22.9199 8.0957C22.7637 8.25195 22.5781 8.33008 22.3633 8.33008ZM0.800781 11.6895C0.579427 11.6895 0.390625 11.6113 0.234375 11.4551C0.078125 11.2988 0 11.1133 0 10.8984C0 10.6771 0.078125 10.4883 0.234375 10.332C0.390625 10.1758 0.579427 10.0977 0.800781 10.0977C1.01562 10.0977 1.20117 10.1758 1.35742 10.332C1.51367 10.4883 1.5918 10.6771 1.5918 10.8984C1.5918 11.1133 1.51367 11.2988 1.35742 11.4551C1.20117 11.6113 1.01562 11.6895 0.800781 11.6895ZM3.87695 11.9434C3.59049 11.9434 3.3431 11.8424 3.13477 11.6406C2.93294 11.4323 2.83203 11.1849 2.83203 10.8984C2.83203 10.612 2.93294 10.3646 3.13477 10.1562C3.3431 9.94792 3.59049 9.84375 3.87695 9.84375C4.16341 9.84375 4.40755 9.94792 4.60938 10.1562C4.81771 10.3646 4.92188 10.612 4.92188 10.8984C4.92188 11.1849 4.81771 11.4323 4.60938 11.6406C4.40755 11.8424 4.16341 11.9434 3.87695 11.9434ZM6.50391 11.8457C6.32812 11.7546 6.1849 11.6243 6.07422 11.4551C5.96354 11.2858 5.9082 11.1003 5.9082 10.8984C5.9082 10.612 6.00911 10.3646 6.21094 10.1562C6.41927 9.94792 6.66667 9.84375 6.95312 9.84375C7.28516 9.84375 7.55208 9.97396 7.75391 10.2344C7.96224 10.4948 8.03711 10.7845 7.97852 11.1035C7.7181 11.2142 7.46419 11.3314 7.2168 11.4551C6.9694 11.5723 6.73177 11.7025 6.50391 11.8457ZM16.6895 11.8164C16.4551 11.6797 16.2109 11.5495 15.957 11.4258C15.7096 11.3021 15.4525 11.1914 15.1855 11.0938C15.1204 10.7682 15.1921 10.4785 15.4004 10.2246C15.6087 9.9707 15.8757 9.84375 16.2012 9.84375C16.4876 9.84375 16.735 9.94792 16.9434 10.1562C17.1517 10.3646 17.2559 10.612 17.2559 10.8984C17.2559 11.0938 17.2005 11.276 17.0898 11.4453C16.9857 11.6081 16.8522 11.7318 16.6895 11.8164ZM19.2871 11.9434C19.0007 11.9434 18.7533 11.8424 18.5449 11.6406C18.3366 11.4323 18.2324 11.1849 18.2324 10.8984C18.2324 10.612 18.3366 10.3646 18.5449 10.1562C18.7533 9.94792 19.0007 9.84375 19.2871 9.84375C19.5736 9.84375 19.8177 9.94792 20.0195 10.1562C20.2279 10.3646 20.332 10.612 20.332 10.8984C20.332 11.1849 20.2279 11.4323 20.0195 11.6406C19.8177 11.8424 19.5736 11.9434 19.2871 11.9434ZM22.3633 11.6895C22.1419 11.6895 21.9531 11.6113 21.7969 11.4551C21.6406 11.2988 21.5625 11.1133 21.5625 10.8984C21.5625 10.6771 21.6406 10.4883 21.7969 10.332C21.9531 10.1758 22.1419 10.0977 22.3633 10.0977C22.5781 10.0977 22.7637 10.1758 22.9199 10.332C23.0827 10.4883 23.1641 10.6771 23.1641 10.8984C23.1641 11.1133 23.0827 11.2988 22.9199 11.4551C22.7637 11.6113 22.5781 11.6895 22.3633 11.6895ZM0.800781 14.8047C0.651042 14.8047 0.520833 14.7526 0.410156 14.6484C0.30599 14.5378 0.253906 14.4076 0.253906 14.2578C0.253906 14.1081 0.30599 13.9811 0.410156 13.877C0.520833 13.7663 0.651042 13.7109 0.800781 13.7109C0.950521 13.7109 1.07747 13.7663 1.18164 13.877C1.29232 13.9811 1.34766 14.1081 1.34766 14.2578C1.34766 14.4076 1.29232 14.5378 1.18164 14.6484C1.07747 14.7526 0.950521 14.8047 0.800781 14.8047ZM3.53516 14.9707C3.22917 14.834 3.07617 14.5964 3.07617 14.2578C3.07617 14.043 3.1543 13.8574 3.31055 13.7012C3.4668 13.5449 3.6556 13.4668 3.87695 13.4668C4.06576 13.4668 4.23503 13.5286 4.38477 13.6523C4.05273 14.0755 3.76953 14.515 3.53516 14.9707ZM19.668 14.9609C19.4206 14.4792 19.1309 14.0332 18.7988 13.623C18.9486 13.5189 19.1113 13.4668 19.2871 13.4668C19.502 13.4668 19.6875 13.5449 19.8438 13.7012C20 13.8574 20.0781 14.043 20.0781 14.2578C20.0781 14.5638 19.9414 14.7982 19.668 14.9609ZM22.3633 14.8047C22.2135 14.8047 22.0833 14.7526 21.9727 14.6484C21.8685 14.5378 21.8164 14.4076 21.8164 14.2578C21.8164 14.1081 21.8685 13.9811 21.9727 13.877C22.0833 13.7663 22.2135 13.7109 22.3633 13.7109C22.513 13.7109 22.64 13.7663 22.7441 13.877C22.8548 13.9811 22.9102 14.1081 22.9102 14.2578C22.9102 14.4076 22.8548 14.5378 22.7441 14.6484C22.64 14.7526 22.513 14.8047 22.3633 14.8047ZM0.800781 18.1738C0.651042 18.1738 0.520833 18.1185 0.410156 18.0078C0.30599 17.9036 0.253906 17.7767 0.253906 17.627C0.253906 17.4772 0.30599 17.347 0.410156 17.2363C0.520833 17.1322 0.651042 17.0801 0.800781 17.0801C0.950521 17.0801 1.07747 17.1322 1.18164 17.2363C1.29232 17.347 1.34766 17.4772 1.34766 17.627C1.34766 17.7767 1.29232 17.9036 1.18164 18.0078C1.07747 18.1185 0.950521 18.1738 0.800781 18.1738ZM22.3633 18.1738C22.2135 18.1738 22.0833 18.1185 21.9727 18.0078C21.8685 17.9036 21.8164 17.7767 21.8164 17.627C21.8164 17.4772 21.8685 17.347 21.9727 17.2363C22.0833 17.1322 22.2135 17.0801 22.3633 17.0801C22.513 17.0801 22.64 17.1322 22.7441 17.2363C22.8548 17.347 22.9102 17.4772 22.9102 17.627C22.9102 17.7767 22.8548 17.9036 22.7441 18.0078C22.64 18.1185 22.513 18.1738 22.3633 18.1738Z" fill="white" fill-opacity="0.7"/>
</svg>
