<svg width="26" height="21" viewBox="0 0 26 21" fill="none" xmlns="http://www.w3.org/2000/svg">
<path d="M12.0996 13.2422C12.6725 13.2422 13.1608 13.0371 13.5645 12.627C13.9746 12.2168 14.1797 11.7253 14.1797 11.1523C14.1797 10.7747 14.0853 10.4297 13.8965 10.1172C13.7077 9.79818 13.4538 9.54427 13.1348 9.35547C12.8223 9.16016 12.4772 9.0625 12.0996 9.0625C11.5267 9.0625 11.0352 9.27083 10.625 9.6875C10.2214 10.0977 10.0195 10.5859 10.0195 11.1523C10.0195 11.7253 10.2214 12.2168 10.625 12.627C11.0352 13.0371 11.5267 13.2422 12.0996 13.2422ZM8.32031 19.3262H22.4121C22.8158 19.3262 23.1413 19.2025 23.3887 18.9551C23.6426 18.7077 23.7695 18.3757 23.7695 17.959V16.748L19.9707 13.2031C19.7754 13.0273 19.5638 12.8971 19.3359 12.8125C19.1146 12.7214 18.8867 12.6758 18.6523 12.6758C18.4049 12.6758 18.1706 12.7181 17.9492 12.8027C17.7344 12.8809 17.5228 13.0111 17.3145 13.1934L13.3594 16.7188L11.7676 15.2832C11.5788 15.1204 11.3835 14.9967 11.1816 14.9121C10.9863 14.8275 10.7812 14.7852 10.5664 14.7852C10.3776 14.7852 10.1888 14.8275 10 14.9121C9.8112 14.9902 9.6224 15.1107 9.43359 15.2734L6.94336 17.5098V17.9492C6.94336 18.3659 7.06706 18.6979 7.31445 18.9453C7.56185 19.1992 7.89714 19.3262 8.32031 19.3262ZM8.68164 20.6934C7.65951 20.6934 6.89128 20.4395 6.37695 19.9316C5.86914 19.4303 5.61523 18.6751 5.61523 17.666V8.45703C5.61523 7.44792 5.86914 6.69271 6.37695 6.19141C6.89128 5.68359 7.65951 5.42969 8.68164 5.42969H22.0215C23.0371 5.42969 23.8021 5.68359 24.3164 6.19141C24.8307 6.69922 25.0879 7.45443 25.0879 8.45703V17.666C25.0879 18.6751 24.8307 19.4303 24.3164 19.9316C23.8021 20.4395 23.0371 20.6934 22.0215 20.6934H8.68164ZM1.86523 15.166L0.263672 6.09375C0.0878906 5.10417 0.208333 4.31641 0.625 3.73047C1.04167 3.14453 1.7513 2.76042 2.75391 2.57812L15.8984 0.263672C16.901 0.0878906 17.6953 0.205078 18.2812 0.615234C18.8737 1.02539 19.2611 1.72526 19.4434 2.71484L19.6875 4.10156H8.68164C7.75065 4.10156 6.95638 4.27409 6.29883 4.61914C5.64779 4.95768 5.14648 5.45247 4.79492 6.10352C4.44987 6.75456 4.27734 7.53906 4.27734 8.45703V17.5781C4.27734 17.5977 4.27734 17.6172 4.27734 17.6367C4.27734 17.6497 4.27734 17.6628 4.27734 17.6758C2.94271 17.5781 2.13867 16.7415 1.86523 15.166Z" fill="white" fill-opacity="0.7"/>
</svg>
